<svg width="780" height="795" viewBox="0 0 780 795" fill="none" xmlns="http://www.w3.org/2000/svg">
<path d="M523.518 651.192C523.518 680.149 563.316 703.621 612.405 703.621C648.247 703.621 679.107 691.12 693.175 673.096L693.716 673.245L712.374 678.358C712.018 678.916 711.824 679.562 711.815 680.223C711.815 680.41 711.815 680.615 711.815 680.839C711.618 681.687 711.606 682.568 711.78 683.421C711.954 684.274 712.309 685.08 712.822 685.784C713.982 686.837 715.34 687.65 716.816 688.175C718.293 688.701 719.859 688.928 721.424 688.843C726.424 688.843 730.342 686.269 730.398 684.048C730.398 680.317 730.305 679.365 729.913 678.768C729.037 677.667 727.856 676.85 726.517 676.417C724.653 674.265 722.022 672.925 719.185 672.686C717.319 672.163 706.329 669.309 697.187 666.92C699.846 662.102 701.257 656.695 701.292 651.192C701.292 622.234 661.494 598.763 612.405 598.763C563.316 598.763 523.518 622.178 523.518 651.192ZM659.143 672.499C659.124 672.852 658.97 673.185 658.713 673.428C658.457 673.671 658.116 673.806 657.762 673.805H657.669C657.485 673.793 657.306 673.745 657.14 673.664C656.975 673.582 656.828 673.469 656.706 673.33C656.585 673.191 656.492 673.03 656.433 672.856C656.374 672.681 656.35 672.496 656.363 672.313L656.68 667.667C657.59 667.902 658.522 668.046 659.46 668.096L659.143 672.499ZM725.92 681.436C726.454 680.995 726.855 680.413 727.077 679.757L727.525 680.093C727.726 681.326 727.776 682.579 727.674 683.824C726.861 684.622 725.884 685.233 724.811 685.617C723.739 686 722.595 686.146 721.461 686.045C719.031 686.19 716.641 685.38 714.8 683.787C714.445 683.433 714.576 681.716 714.632 681.082C714.632 680.821 714.632 680.578 714.632 680.354C714.632 680.13 714.632 679.72 715.602 679.272C715.858 680.11 716.343 680.859 717.003 681.436C717.662 682.013 718.469 682.395 719.334 682.537C720.05 682.7 720.782 682.781 721.517 682.78C723.096 682.853 724.651 682.379 725.92 681.436ZM656.382 664.457C656.453 662.911 657.122 661.453 658.248 660.39C659.274 659.756 660.822 660.241 662.334 660.707L663.435 661.043L666.439 661.827L696.067 669.551C709.408 673.003 717.375 675.149 718.457 675.41H718.718C720.029 675.546 721.298 675.946 722.45 676.585C723.116 676.907 723.688 677.396 724.11 678.003L724.222 678.227C724.24 678.326 724.24 678.427 724.222 678.526C724.232 678.66 724.206 678.795 724.147 678.916C724.088 679.037 723.998 679.141 723.886 679.216C723.276 679.575 722.599 679.806 721.896 679.892C721.193 679.979 720.48 679.92 719.8 679.72C719.381 679.677 718.985 679.505 718.667 679.228C718.35 678.95 718.126 678.581 718.028 678.171C717.865 677.571 717.477 677.057 716.946 676.734L715.696 676.343C710.938 674.943 694.463 670.503 694.276 670.447C689.91 669.253 668.062 663.338 666.289 662.984C665.973 662.959 665.654 662.959 665.338 662.984C664.76 662.968 664.187 663.1 663.674 663.368C663.162 663.636 662.726 664.03 662.408 664.513C662.275 664.706 662.119 664.882 661.942 665.036H661.457C660.417 665.175 659.363 665.175 658.322 665.036H658.024C657.372 664.959 656.739 664.763 656.158 664.457H656.382ZM643.9 679.944C644.064 680.271 644.094 680.65 643.982 680.998C643.87 681.347 643.626 681.638 643.303 681.809C636.791 685.224 625.689 686.996 614.289 686.996C605.569 687.118 596.879 685.942 588.504 683.507C588.15 683.396 587.855 683.148 587.684 682.82C587.513 682.491 587.479 682.107 587.59 681.753C587.705 681.398 587.956 681.103 588.288 680.932C588.62 680.761 589.006 680.728 589.362 680.839C605.203 685.933 630.802 685.205 641.997 679.328C642.323 679.185 642.692 679.169 643.029 679.283C643.367 679.397 643.651 679.632 643.825 679.944H643.9ZM602.218 675.447C602.273 675.081 602.471 674.752 602.768 674.532C603.065 674.312 603.438 674.218 603.804 674.272C610.526 675.458 617.416 675.318 624.085 673.861C624.264 673.817 624.45 673.809 624.632 673.836C624.814 673.864 624.989 673.927 625.146 674.023C625.304 674.118 625.441 674.243 625.551 674.392C625.66 674.54 625.739 674.708 625.783 674.887C625.827 675.066 625.835 675.252 625.808 675.434C625.78 675.616 625.717 675.791 625.621 675.949C625.526 676.106 625.401 676.244 625.252 676.353C625.104 676.462 624.935 676.541 624.757 676.585C621.089 677.453 617.331 677.879 613.562 677.854C610.151 677.83 606.747 677.562 603.375 677.052C603.011 676.988 602.686 676.784 602.47 676.484C602.254 676.185 602.164 675.812 602.218 675.447ZM639.72 645.389C639.72 654.289 627.499 661.51 612.405 661.51C597.311 661.51 585.09 654.289 585.09 645.389C585.09 636.489 597.311 629.269 612.405 629.269C627.499 629.269 639.72 636.471 639.72 645.37V645.389ZM565.088 617.495C572.234 613.316 580.015 610.629 585.724 610.331C586.095 610.325 586.453 610.461 586.727 610.71C587.001 610.96 587.17 611.305 587.198 611.674C587.206 611.858 587.177 612.041 587.113 612.214C587.05 612.387 586.953 612.545 586.828 612.68C586.703 612.815 586.553 612.925 586.386 613.002C586.219 613.079 586.038 613.122 585.855 613.129C580.593 613.409 573.167 616.003 566.488 619.921C566.278 620.043 566.04 620.107 565.797 620.107C565.488 620.11 565.187 620.01 564.941 619.823C564.694 619.636 564.517 619.373 564.436 619.075C564.355 618.776 564.375 618.46 564.493 618.174C564.611 617.888 564.82 617.65 565.088 617.495ZM560.834 630.668C568.297 623.522 582.254 616.133 596.284 615.741C596.654 615.736 597.011 615.876 597.28 616.13C597.548 616.385 597.707 616.734 597.721 617.104C597.729 617.288 597.699 617.472 597.634 617.645C597.569 617.818 597.471 617.976 597.344 618.11C597.217 618.243 597.064 618.351 596.895 618.425C596.726 618.498 596.544 618.538 596.359 618.54C583.131 618.895 569.678 626.115 562.775 632.683C562.521 632.933 562.179 633.074 561.823 633.075C561.54 633.079 561.263 632.997 561.028 632.84C560.792 632.683 560.61 632.458 560.505 632.195C560.4 631.933 560.377 631.644 560.439 631.368C560.501 631.092 560.645 630.842 560.853 630.649L560.834 630.668Z" fill="black"/>
<path d="M538.482 214.782C538.181 214.597 537.822 214.533 537.476 214.602C537.13 214.672 536.823 214.869 536.616 215.155C533.841 219.29 531.288 223.568 528.966 227.973C528.816 228.3 528.797 228.672 528.914 229.012C529.03 229.352 529.274 229.635 529.593 229.8C529.912 229.966 530.283 230.002 530.628 229.902C530.974 229.801 531.267 229.572 531.448 229.26C533.712 224.958 536.203 220.779 538.911 216.741C539.014 216.585 539.084 216.41 539.119 216.226C539.153 216.042 539.15 215.853 539.11 215.671C539.07 215.488 538.994 215.315 538.886 215.163C538.778 215.01 538.64 214.881 538.482 214.782Z" fill="black"/>
<path d="M539.34 240.194C539.476 240.215 539.614 240.215 539.751 240.194C544.406 238.504 548.837 236.249 552.942 233.477C553.105 233.38 553.246 233.249 553.358 233.095C553.469 232.941 553.547 232.765 553.588 232.579C553.629 232.394 553.632 232.202 553.596 232.015C553.561 231.828 553.487 231.65 553.38 231.493C553.274 231.335 553.136 231.201 552.976 231.099C552.815 230.996 552.636 230.927 552.448 230.897C552.26 230.866 552.068 230.874 551.884 230.92C551.699 230.966 551.526 231.049 551.375 231.164C547.493 233.766 543.315 235.895 538.93 237.508C538.605 237.602 538.325 237.812 538.142 238.097C537.96 238.382 537.887 238.723 537.937 239.058C537.987 239.393 538.157 239.698 538.415 239.918C538.673 240.137 539.002 240.255 539.34 240.25V240.194Z" fill="black"/>
<path d="M548.67 258.572C551.319 258.889 558.82 260.065 558.894 260.083H559.118C559.469 260.082 559.807 259.95 560.065 259.711C560.322 259.473 560.481 259.146 560.509 258.796C560.537 258.446 560.433 258.099 560.217 257.822C560.001 257.546 559.688 257.36 559.342 257.303C559.025 257.303 551.711 256.109 549.006 255.792C548.823 255.769 548.637 255.782 548.459 255.832C548.282 255.881 548.116 255.966 547.971 256.081C547.827 256.196 547.707 256.338 547.619 256.5C547.53 256.662 547.475 256.84 547.457 257.023C547.415 257.389 547.518 257.757 547.745 258.047C547.972 258.337 548.305 258.525 548.67 258.572Z" fill="black"/>
<path d="M707.953 265.475C708.282 265.472 708.599 265.353 708.849 265.139C722.469 253.683 726.108 237.152 719.111 218.644C718.964 218.32 718.699 218.064 718.371 217.928C718.042 217.792 717.674 217.787 717.341 217.913C717.008 218.039 716.736 218.287 716.58 218.606C716.423 218.925 716.394 219.293 716.499 219.633C723.16 237.208 719.895 252.209 707.058 262.994C706.841 263.179 706.686 263.426 706.614 263.701C706.541 263.977 706.555 264.268 706.652 264.536C706.749 264.803 706.926 265.035 707.159 265.2C707.391 265.364 707.669 265.454 707.953 265.457V265.475Z" fill="black"/>
<path d="M590.538 413.396C590.372 413.477 590.224 413.589 590.103 413.727C589.981 413.865 589.887 414.026 589.827 414.2C589.768 414.374 589.743 414.558 589.754 414.742C589.766 414.926 589.813 415.106 589.894 415.271C589.975 415.436 590.087 415.584 590.225 415.706C590.363 415.828 590.524 415.921 590.698 415.981C590.872 416.041 591.056 416.066 591.24 416.055C591.424 416.043 591.604 415.996 591.769 415.915C654.684 385.148 720.397 373.468 730.062 385.502C730.852 386.448 731.415 387.561 731.709 388.758C732.003 389.954 732.021 391.202 731.76 392.406C729.241 405.951 700.732 422.613 700.433 422.781C700.165 422.935 699.956 423.174 699.838 423.459C699.72 423.745 699.7 424.062 699.781 424.36C699.862 424.659 700.039 424.922 700.286 425.109C700.532 425.295 700.833 425.395 701.142 425.393C701.391 425.396 701.636 425.331 701.851 425.206C703.064 424.497 731.704 407.724 734.521 392.928C734.86 391.327 734.833 389.67 734.442 388.08C734.051 386.491 733.306 385.01 732.264 383.748C720.472 369.102 651.605 383.506 590.538 413.396Z" fill="black"/>
<path d="M779.487 526.593C775.532 523.104 762.285 511.965 757.564 515.212C754.915 517.078 754.784 523.664 754.784 534.336C754.784 540.325 754.784 550.326 753.217 551.128C751.65 551.931 746.537 546.874 743.272 543.665C738.346 538.758 735.193 535.792 732.562 536.202C728.831 536.78 729.316 543.292 730.491 553.946C730.921 557.808 731.518 563.107 731.088 564.096C730.23 564.376 725.267 562.23 712.71 549.001C712.6 548.831 712.453 548.686 712.281 548.578C712.108 548.47 711.915 548.401 711.713 548.375C711.511 548.349 711.306 548.368 711.112 548.43C710.919 548.491 710.74 548.595 710.591 548.732C710.441 548.87 710.323 549.038 710.244 549.226C710.166 549.414 710.13 549.616 710.138 549.82C710.147 550.023 710.199 550.222 710.292 550.403C710.385 550.584 710.516 550.742 710.677 550.867C720.789 561.465 727.637 566.838 731.051 566.838H731.499C731.934 566.774 732.346 566.601 732.697 566.338C733.049 566.074 733.33 565.727 733.514 565.327C734.316 563.648 733.962 559.972 733.253 553.61C732.712 548.852 731.723 539.971 732.973 538.945C734.354 538.721 738.57 542.882 741.276 545.624C746.351 550.681 750.754 554.953 754.168 553.778C757.583 552.602 757.564 545.942 757.546 534.299C757.546 528.03 757.545 518.552 759.113 517.507C760.979 516.163 770.308 522.19 777.603 528.702C777.88 528.949 778.244 529.076 778.615 529.055C778.986 529.034 779.333 528.867 779.581 528.59C779.828 528.312 779.955 527.948 779.934 527.577C779.913 527.207 779.746 526.859 779.469 526.612L779.487 526.593Z" fill="black"/>
<path d="M741.22 649.102C741.472 649.102 741.72 649.035 741.937 648.906C742.154 648.777 742.333 648.592 742.453 648.37C742.573 648.148 742.632 647.898 742.621 647.646C742.611 647.393 742.533 647.149 742.395 646.937C742.246 646.695 726.536 622.906 712.729 608.987C712.601 608.849 712.446 608.739 712.275 608.663C712.103 608.586 711.918 608.545 711.73 608.542C711.542 608.538 711.355 608.573 711.181 608.643C711.007 608.714 710.848 608.818 710.716 608.951C710.583 609.084 710.478 609.243 710.407 609.417C710.337 609.591 710.303 609.778 710.306 609.965C710.309 610.153 710.35 610.339 710.427 610.51C710.503 610.682 710.614 610.837 710.751 610.965C724.371 624.697 739.914 648.281 740.063 648.486C740.191 648.675 740.363 648.83 740.565 648.937C740.766 649.045 740.991 649.101 741.22 649.102Z" fill="black"/>
<path d="M744.241 633.952C744.102 633.829 743.939 633.735 743.763 633.676C743.587 633.616 743.401 633.591 743.216 633.603C743.031 633.616 742.85 633.664 742.683 633.746C742.516 633.828 742.367 633.943 742.245 634.082C742.122 634.222 742.029 634.384 741.969 634.56C741.909 634.736 741.885 634.922 741.897 635.107C741.909 635.293 741.957 635.474 742.04 635.641C742.122 635.807 742.236 635.956 742.376 636.079C746.891 639.978 755.697 653.225 755.791 653.356C755.918 653.551 756.092 653.712 756.298 653.822C756.503 653.933 756.733 653.991 756.966 653.99C757.238 653.993 757.504 653.915 757.731 653.766C758.02 653.563 758.221 653.257 758.294 652.911C758.367 652.564 758.306 652.204 758.123 651.901C757.787 651.192 749.036 638.131 744.241 633.952Z" fill="black"/>
<path d="M755.007 684.944V684.832C754.984 684.772 754.952 684.716 754.914 684.664C754.931 684.616 754.931 684.563 754.914 684.515C754.448 683.955 709.202 627.123 701.981 617.644C694.761 608.166 672.222 582.362 668.005 578.295C667.853 578.15 667.67 578.041 667.469 577.976C667.269 577.911 667.057 577.893 666.848 577.922C665.86 578.052 604.605 586.542 557.345 593.128C557.837 585.512 558.766 577.931 560.125 570.421C562.692 555.456 564.399 540.355 565.237 525.194C567.327 523.922 569.214 522.344 570.834 520.511C570.984 520.315 571.081 520.084 571.114 519.839C571.114 519.839 571.823 514.746 573.148 507.805C580.779 467.821 579.193 445.618 577.663 424.142L577.346 419.609C576.6 408.768 575.368 399.234 574.286 390.819C574.062 389.103 573.857 387.461 573.652 385.875C579.494 377.966 585.799 370.408 592.534 363.243C596.377 359.231 603.206 352.458 611.192 344.585C625.633 330.293 643.601 312.512 656.4 298.593C668.69 285.375 679.762 271.075 689.48 255.866C690.693 254 691.85 252.134 692.167 251.911C701.235 244.988 697.503 238.029 692.354 228.383C691.216 226.256 689.928 223.83 688.622 221.255C681.849 207.187 649.086 161.96 636.51 145.803C623.935 129.645 610.147 111.528 606.938 101.882C610.553 96.507 611.895 89.92 610.669 83.5595C609.326 74.9582 606.732 71.0587 602.796 65.1441L601.508 63.2783C599.321 60.5918 597.719 57.4777 596.806 54.1359C596.787 52.8405 596.837 51.5451 596.956 50.255C597.123 47.4749 597.366 43.6501 597.273 39.9371C597.19 34.3905 596.641 28.8607 595.631 23.4061C595.015 20.3649 593.392 16.5587 590.873 15.9429C590.31 15.7942 589.714 15.8158 589.163 16.0051C588.612 16.1944 588.129 16.5428 587.776 17.0064C585.91 19.1894 585.817 23.6487 585.742 28.7796C585.742 29.8805 585.742 30.9813 585.742 32.0634C585.574 36.7327 584.993 41.378 584.007 45.945C583.745 45.4373 583.514 44.9138 583.317 44.3777C582.923 41.4328 582.879 38.4517 583.186 35.4965C583.317 34.5263 583.484 33.6307 583.652 32.5672C584.461 28.2601 584.879 23.8889 584.903 19.5066C584.903 14.6555 583.764 10.9613 581.563 9.39398C580.954 8.95239 580.225 8.70525 579.473 8.68499C579.088 7.78444 578.437 7.02289 577.607 6.502C577.09 6.2189 576.5 6.09943 575.913 6.1594C575.327 6.21937 574.772 6.45596 574.323 6.83785C571.655 8.9462 565.853 19.8984 564.845 22.2867C563.651 25.0854 563.241 28.5931 563.147 37.4743C562.868 37.5656 562.604 37.6976 562.364 37.8661C561.862 38.2896 561.465 38.8229 561.203 39.4248C560.941 40.0266 560.821 40.6808 560.852 41.3365C560.453 40.5236 560.176 39.6559 560.031 38.7617L559.938 38.2019C558.543 29.7737 556.459 21.4742 553.706 13.3868C550.087 2.6398 546.243 0.829978 544.377 0.71803C543.745 0.664453 543.11 0.80321 542.558 1.11615C542.005 1.42909 541.56 1.90163 541.28 2.47187C540.217 4.69217 540.366 5.86763 542.232 20.197L542.68 23.6487C544.545 38.034 545.795 47.5496 545.721 52.1581C545.721 52.8111 545.721 53.4828 545.721 54.1359C545.056 59.7167 546.588 65.3373 549.993 69.8086C556.749 79.4201 562.893 89.4468 568.39 99.8293C572.999 108.953 587.44 134.459 593.448 144.758C599.456 155.057 617.703 190.339 622.76 201.422C623.767 203.624 625.055 206.366 626.491 209.389C631.305 219.726 640.279 238.943 640.037 241.555C639.72 244.485 627.555 255.549 616.808 265.288C613.785 268.031 610.706 270.886 607.684 273.628C592.646 287.51 574.865 297.641 567.177 300.757L563.744 302.101C554.425 305.426 545.681 310.185 537.828 316.206C532.231 320.423 520.532 329.267 515.812 326.188C513.2 324.322 507.043 295.626 510.215 277.136C511.258 277.47 512.347 277.64 513.442 277.64C514.485 277.638 515.521 277.487 516.521 277.192C518.563 276.617 520.408 275.494 521.857 273.946C523.379 272.33 524.475 270.362 525.048 268.218C525.48 266.347 525.65 264.426 525.551 262.508V262.116C525.185 253.904 523.2 245.846 519.712 238.402C519.675 238.285 519.625 238.172 519.562 238.066V237.973C518.272 235.284 516.53 232.835 514.413 230.734C512.833 229.215 510.866 228.16 508.728 227.682C506.589 227.205 504.36 227.325 502.285 228.028C501.135 228.416 500.048 228.969 499.057 229.67C488.646 209.893 474.802 198.101 458.121 194.575C435.732 173.79 383.116 164.834 339.848 184.574C295.219 204.892 280.255 229.353 284.658 274.617C284.912 277.369 284.597 280.144 283.734 282.77C282.871 285.395 281.477 287.815 279.639 289.88C271.952 299.097 256.615 305.272 237.584 306.84C206.481 309.396 177.114 311.821 164.818 348.839C164.724 349.118 164.72 349.42 164.807 349.701C164.894 349.982 165.067 350.229 165.303 350.406C165.541 350.582 165.828 350.677 166.124 350.677C166.42 350.677 166.707 350.582 166.945 350.406C176.6 344.035 188.072 340.995 199.615 341.749C211.705 342.309 215.736 345.928 215.792 346.917C215.848 347.906 211.258 348.074 208.328 348.298C198.999 349.025 183.383 350.164 171.497 362.739C171.285 362.964 171.154 363.253 171.123 363.561C171.093 363.869 171.166 364.179 171.33 364.441C171.494 364.703 171.741 364.904 172.031 365.011C172.321 365.118 172.639 365.126 172.934 365.034C173.979 364.698 183.644 362.049 204.205 371.564C222.098 379.867 235.718 385.464 252.716 385.464C258.466 385.432 264.201 384.858 269.844 383.748C293.39 379.289 313.615 362.926 323.952 339.958C328.001 331.02 331.788 320.982 335.445 311.262C339.494 300.552 343.673 289.488 348.114 280.121C355.353 264.896 373.041 240.604 390.673 237.973C389.535 251.26 392.119 264.601 398.136 276.502C396.478 278.235 395.521 280.522 395.449 282.92C394.983 290.141 397.707 297.492 404.89 308.276C410.32 316.43 415.264 318.445 418.846 318.445C420.655 318.446 422.425 317.92 423.94 316.934C424.989 316.224 425.916 315.348 426.683 314.34C429.903 318.513 433.413 322.453 437.187 326.132C443.158 331.729 450.658 337.999 459.204 341.544C454.595 343.409 448.774 345.275 442.654 347.141C432.168 350.387 421.328 353.765 414.667 357.981C401.265 366.114 389.858 377.151 381.288 390.278C375.594 398.809 370.399 407.661 365.727 416.791C363.451 421.101 361.287 425.187 359.01 428.9C352.834 439.013 343.468 451.775 329.904 470.078C322.179 480.471 317.235 487.617 313.615 492.841C310.985 496.573 309.231 499.166 307.85 500.864C304.715 505.119 300.707 508.656 296.096 511.238L295.349 511.592C290.368 513.943 278.706 519.466 249.488 545.307C237.827 555.644 229.878 562.995 223.497 568.891C214.765 576.97 208.981 582.306 200.399 589.116L200.212 589.228C193.122 587.363 188.887 586.038 188.849 586.038C188.65 585.975 188.44 585.958 188.233 585.987C188.027 586.016 187.829 586.091 187.655 586.206C158.064 606.077 54.0641 666.137 52.3662 667.125C52.1921 667.217 52.0394 667.344 51.9184 667.499C51.9162 667.542 51.9162 667.586 51.9184 667.629V667.76C51.8356 667.935 51.7911 668.126 51.7878 668.32C51.7878 668.32 51.7878 668.32 51.7878 668.32C52.0293 680.925 53.796 693.455 57.0494 705.636C57.1398 705.949 57.3381 706.22 57.6091 706.401C127.894 752.934 219.131 774.707 344.737 774.894H347.144C510.009 774.894 676.252 746.441 749.074 729.555C749.344 729.492 749.59 729.35 749.779 729.148C749.968 728.945 750.093 728.691 750.138 728.417C751.145 722.167 754.597 696.941 755.38 685.336C755.39 685.243 755.39 685.149 755.38 685.056C755.273 684.975 755.141 684.935 755.007 684.944ZM666.382 580.702C671.42 585.833 692.652 610.181 699.593 619.268C706.198 627.944 744.484 676.025 751.481 684.813C709.37 704.236 542.512 724.611 525.29 726.682C524.451 718.64 520.122 678.507 514.543 653.505C509.562 631.227 506.054 608.857 505.214 603.129L516.577 601.505L521.465 600.815L556.057 595.983L666.382 580.702ZM427.392 461.869C427.858 463.156 428.343 464.425 428.828 465.6C433.421 476.702 436.023 488.525 436.516 500.528C437.4 511.885 434.948 523.253 429.463 533.236C429.356 533.403 429.287 533.591 429.258 533.787C429.23 533.983 429.243 534.183 429.298 534.374C429.353 534.564 429.447 534.741 429.575 534.892C429.703 535.043 429.862 535.166 430.041 535.251C431.646 536.016 433.232 536.706 434.78 537.396C433.25 539.859 428.922 545.979 418.604 555.364C415.245 558.424 410.096 562.454 404.125 567.119C387.967 579.769 365.914 596.971 353.45 614.883C344.252 614.883 334.792 614.753 325.071 614.51L324.736 609.696C324.736 609.696 324.736 609.696 324.736 609.584C324.74 609.516 324.74 609.447 324.736 609.379C324.742 609.317 324.742 609.254 324.736 609.192V609.08C324.696 609.006 324.638 608.941 324.568 608.894L324.437 608.782H324.269H324.045H323.933C323.847 608.763 323.758 608.763 323.672 608.782C294.715 608.782 262.996 603.614 240.476 599.024C247.38 594.397 257.082 589.154 270.217 582.064L278.725 577.474C315.351 557.622 328.523 549.935 334.344 543.516C338.221 538.879 341.858 534.047 345.241 529.038C347.942 524.973 350.883 521.073 354.047 517.358C358.545 512.403 362.756 507.195 366.66 501.76C368.806 498.942 371.269 495.733 374.123 492.02C379.217 485.415 385.766 477.094 392.781 468.138C400.897 457.783 409.275 447.054 416.906 437.184C419.593 433.695 421.72 430.859 423.436 428.49C421.928 439.772 423.289 451.252 427.392 461.869ZM488.702 597.886L492.434 582.959C500.83 583.873 509.356 584.62 517.902 584.825L515.084 598.949L513.107 599.248C504.922 599.57 496.726 599.114 488.627 597.886H488.702ZM502.229 601.99L501.595 605.218C449.352 611.207 406.439 614.864 356.883 614.976C369.291 598.035 390.3 581.579 405.842 569.414C409.294 566.708 412.465 564.227 415.171 561.95C437.773 586.225 469.033 600.612 502.173 601.99H502.229ZM485.922 597.438C477.052 595.917 468.378 593.414 460.062 589.975L464.521 577.287C472.535 579.953 480.81 581.76 489.206 582.679H489.616L485.922 597.438ZM457.487 588.781C450.984 585.896 444.742 582.456 438.829 578.5L443.587 566.857C449.253 570.732 455.392 573.867 461.853 576.186L457.487 588.781ZM436.497 576.877L435.471 576.149L440.62 564.6L441.311 565.122L436.497 576.877ZM433.157 574.451C427.483 570.184 422.195 565.427 417.354 560.234C418.492 559.282 419.555 558.368 420.47 557.528C423.324 554.935 425.713 552.584 427.746 550.476C430.675 555.058 434.258 559.188 438.381 562.734L433.157 574.451ZM322.329 616.077C322.352 616.426 322.504 616.753 322.756 616.994C323.008 617.236 323.342 617.375 323.691 617.383C334.195 617.663 344.214 617.812 354.103 617.812H354.402C405.525 617.812 449.24 614.081 502.919 607.905H503.143C504.58 616.935 507.733 635.593 511.894 654.195C514.972 667.984 517.659 686.436 519.6 701.493C521.54 716.55 522.697 728.193 522.715 728.398L522.827 730.432C445.677 738.716 359.477 745.489 231.259 730.898L231.091 728.641C291.879 663.058 315.407 626.507 322.254 614.827L322.329 616.077ZM518.107 598.539L520.719 584.956H521.969L520.01 598.259L518.144 598.52L518.107 598.539ZM522.883 597.867L524.749 585.03C535.063 585.132 545.356 584.093 555.442 581.933C554.907 585.751 554.565 589.593 554.415 593.445L522.865 597.867H522.883ZM557.27 569.88C556.766 573.052 556.3 576.056 555.871 578.929C534.675 583.929 511.465 582.306 489.504 579.787C461.331 576.541 440.154 565.383 429.705 548.349C432.572 545.355 435.128 542.079 437.336 538.572C450.359 544.287 464.443 547.186 478.664 547.08C487.305 546.983 495.931 546.323 504.487 545.102C528.22 541.968 550.199 533.907 562.233 526.855C561.336 541.283 559.66 555.651 557.214 569.899L557.27 569.88ZM574.267 416.605C574.267 417.631 574.435 418.638 574.51 419.683L574.827 424.236C576.357 445.524 577.924 467.541 570.349 507.171C569.23 513.066 568.483 517.619 568.353 518.944C562.476 525.773 534.414 538.367 504.151 542.341C473.234 546.408 456.256 544.337 432.597 533.422C437.827 523.241 440.139 511.811 439.277 500.398C438.765 488.096 436.087 475.982 431.366 464.612C430.899 463.362 430.414 462.111 429.948 460.88C425.096 448.767 423.972 435.481 426.72 422.724C428.595 419.818 430.272 416.789 431.739 413.657C432.728 411.623 433.866 409.328 435.471 406.193C441.068 395.932 447.99 385.259 455.994 372.889L459.577 367.385C461.306 369.977 463.479 372.245 465.995 374.083C469.538 376.63 473.797 377.989 478.16 377.964C480.96 377.94 483.738 377.467 486.388 376.565C502.994 371.098 514.263 361.284 519.282 348.578C546.803 376.023 563.763 397.088 574.211 416.623L574.267 416.605ZM579.268 20.8873C579.845 19.2276 580.257 17.5153 580.499 15.775C580.634 14.5348 580.634 13.2836 580.499 12.0434C581.818 14.2211 582.394 16.7681 582.141 19.3014C582.128 23.5332 581.728 27.755 580.947 31.9142C580.76 32.9777 580.593 33.9479 580.462 34.9554C580.091 38.3481 580.185 41.7755 580.742 45.1427C581.235 46.4467 581.86 47.697 582.608 48.8743H577.775C577.133 44.4369 576.79 39.9613 576.749 35.4779C576.842 30.5252 577.672 25.6141 579.212 20.906L579.268 20.8873ZM567.327 23.3129C568.577 20.3836 574.118 10.4202 575.965 8.96486C576.02 8.91676 576.084 8.87886 576.152 8.85291C576.693 8.94621 578.018 11.4091 577.719 15.5511C577.483 17.093 577.108 18.6104 576.6 20.085C574.917 25.1054 574.005 30.3519 573.894 35.6458C573.904 39.0877 574.11 42.5264 574.51 45.945C573.052 42.9347 570.793 40.3847 567.98 38.5751C567.317 38.1565 566.61 37.8123 565.871 37.5489C565.89 29.1155 566.245 25.7011 567.327 23.3129ZM522.193 328.875C527.473 327.196 533.705 322.811 539.489 318.464C547.144 312.599 555.667 307.966 564.752 304.731L568.222 303.369C576.077 300.179 594.343 289.842 609.568 275.699C612.591 272.919 615.67 270.102 618.674 267.378C633.805 253.627 642.388 245.679 642.798 241.873C643.097 239.074 638.395 228.346 629.01 208.288C627.611 205.266 626.323 202.542 625.278 200.34C620.054 188.903 601.564 153.695 595.538 143.358C589.511 133.022 575.144 107.666 570.555 98.5792C564.978 88.0668 558.747 77.9155 551.897 68.1853C550.391 66.224 549.287 63.9853 548.646 61.5971C548.006 59.2089 547.842 56.7179 548.165 54.2665C548.165 53.5761 548.165 52.8858 548.165 52.1954C548.165 47.3817 546.989 37.7915 545.105 23.2755L544.657 19.8238C542.903 6.39005 542.791 5.10265 543.463 3.66598C543.463 3.53538 543.687 3.49807 543.874 3.49807C545.124 3.49807 547.978 5.9236 550.796 14.2824C553.5 22.2297 555.547 30.3858 556.916 38.6684L557.009 39.2468C557.494 42.1388 558.576 43.7247 561.449 47.9601L561.729 48.3892L562.177 50.0497C559.752 50.2923 557.662 50.5535 556.132 50.8334C555.784 50.8907 555.47 51.0773 555.254 51.3558C555.038 51.6344 554.934 51.9844 554.965 52.3358C554.996 52.6872 555.158 53.014 555.419 53.2509C555.681 53.4878 556.022 53.6173 556.374 53.6134H556.636C558.203 53.3336 560.367 53.0537 562.905 52.8111C564.282 57.4681 565.281 62.229 565.89 67.0472C565.923 67.4134 566.098 67.7524 566.376 67.9927C566.655 68.2328 567.016 68.3555 567.383 68.3346C567.567 68.3205 567.746 68.2701 567.91 68.1864C568.075 68.1027 568.221 67.9872 568.341 67.8468C568.46 67.7063 568.551 67.5436 568.608 67.3679C568.664 67.1923 568.685 67.0072 568.67 66.8233C568.007 61.6311 566.922 56.5018 565.424 51.4864L565.274 50.9267C564.733 49.0609 564.248 47.1951 563.856 45.4599C562.961 41.7283 563.446 40.3476 563.707 40.161C563.968 39.9744 564.603 40.0117 566.301 41.0566C569.757 43.5063 572.278 47.0595 573.446 51.1319C573.558 51.4678 573.67 51.8036 573.782 52.1581C575.223 56.2777 577.766 59.9237 581.134 62.6999C593.261 71.6744 598.467 82.3467 596.601 94.4184C596.572 94.6011 596.579 94.7878 596.623 94.9675C596.666 95.1473 596.745 95.3168 596.854 95.466C596.963 95.6152 597.101 95.7412 597.26 95.8368C597.418 95.9325 597.594 95.9958 597.777 96.023H598C598.333 96.0229 598.654 95.9046 598.907 95.6892C599.16 95.4738 599.328 95.1755 599.381 94.8476C601.433 81.6564 595.855 70.0698 582.831 60.4236C580.142 58.1469 578.054 55.2445 576.749 51.9715C579.716 51.9715 582.552 51.8596 585.014 51.8782C586.992 51.8782 588.746 51.8782 590.127 52.0275C590.498 52.0275 590.854 51.8801 591.116 51.6176C591.379 51.3552 591.526 50.9993 591.526 50.6282C591.526 50.257 591.379 49.9011 591.116 49.6387C590.854 49.3762 590.498 49.2288 590.127 49.2288C588.858 49.2288 587.328 49.0982 585.63 49.0795C587.133 43.5517 587.972 37.8645 588.13 32.1381C588.13 31.0373 588.13 29.9178 588.13 28.7983C588.13 24.7868 588.242 20.2343 589.474 18.8163C589.537 18.7299 589.621 18.6597 589.716 18.611C590.201 18.611 591.769 20.4768 592.478 23.9659C593.462 29.2662 593.999 34.64 594.082 40.0304C594.176 43.6127 593.952 47.363 593.784 50.1057C593.594 51.6798 593.594 53.2708 593.784 54.8448C594.711 58.4724 596.375 61.8703 598.672 64.8269L599.959 66.6927C603.822 72.4953 606.154 76.0217 607.423 83.97C609.065 94.6237 604.102 100.408 603.896 100.65C603.738 100.828 603.628 101.042 603.576 101.274C603.523 101.506 603.531 101.747 603.598 101.975C606.49 111.901 620.726 130.671 633.861 147.5C646.399 163.565 678.957 208.549 685.674 222.431C686.943 225.08 688.249 227.506 689.406 229.67C695.003 239.988 696.869 244.391 689.984 249.653C688.68 251.062 687.558 252.629 686.645 254.317C677.102 269.387 666.224 283.568 654.142 296.69C641.38 310.553 623.431 328.408 609.027 342.588C601.098 350.425 594.269 357.198 590.369 361.246C584.225 367.77 578.439 374.621 573.036 381.77C572.159 374.176 571.767 368.094 572.682 364.101C572.731 363.92 572.743 363.73 572.717 363.544C572.691 363.358 572.628 363.179 572.532 363.018C572.435 362.856 572.307 362.716 572.155 362.605C572.004 362.495 571.831 362.415 571.648 362.373C571.465 362.33 571.275 362.325 571.09 362.357C570.905 362.39 570.728 362.459 570.571 362.561C570.413 362.663 570.277 362.796 570.172 362.951C570.067 363.107 569.994 363.282 569.957 363.467C568.577 369.419 569.752 378.524 571.375 391.099C572.122 396.809 572.924 403.059 573.596 409.869C562.737 391.36 546.038 371.247 520.402 345.63C522.036 340.205 522.644 334.523 522.193 328.875ZM517.155 239.54C520.5 246.62 522.403 254.294 522.753 262.116C522.51 263.124 521.988 263.833 521.447 263.87C520.215 263.87 517.286 261.389 513.983 251.463C511.092 242.488 512.416 237.544 513.778 236.91C514.469 236.648 515.737 237.339 517.137 239.54H517.155ZM503.087 230.678C504.038 230.361 505.033 230.197 506.035 230.193C508.415 230.212 510.698 231.139 512.416 232.786C512.849 233.2 513.26 233.636 513.648 234.092C513.311 234.144 512.985 234.245 512.677 234.391C509.076 236.089 508.554 243.477 511.409 252.34C514.45 261.669 517.883 266.688 521.391 266.688H521.577C521.909 266.666 522.236 266.597 522.548 266.482C522.473 266.856 522.398 267.191 522.324 267.49C521.918 269.13 521.098 270.639 519.941 271.871C518.785 273.103 517.33 274.016 515.719 274.524C513.796 275.089 511.734 274.936 509.916 274.095L509.655 273.964C508.941 273.597 508.282 273.132 507.696 272.584C507.209 272.12 506.771 271.607 506.39 271.054C501.93 264.952 496.874 249.485 496.538 240.977C496.485 240.048 496.529 239.117 496.669 238.197C496.959 236.483 497.707 234.88 498.834 233.556C499.96 232.233 501.423 231.238 503.069 230.678H503.087ZM393.434 236.574C394.323 229.303 397.131 222.399 401.569 216.572C405.094 212.126 409.487 208.445 414.48 205.751C429.276 197.541 443.997 194.556 457.058 197.224C473.29 200.489 486.65 212.057 496.762 231.555C495.238 233.287 494.219 235.403 493.814 237.674C493.814 237.674 493.814 237.861 493.814 237.954C488.403 225.677 476.63 207.393 453.774 203.456C418.697 197.429 393.49 224.502 398.658 253.832C399.871 260.646 401.643 267.348 403.957 273.871C402.663 273.98 401.399 274.321 400.226 274.879C394.289 263.041 391.929 249.731 393.434 236.574ZM422.186 314.601C420.115 315.963 414.443 317.941 406.999 306.728C398.547 294.04 397.67 287.659 398.005 283.107C397.988 282.25 398.143 281.399 398.464 280.604C398.784 279.809 399.262 279.087 399.869 278.482C400.475 277.877 401.198 277.401 401.994 277.083C402.79 276.765 403.642 276.612 404.498 276.632C404.778 276.632 405.114 276.632 405.413 276.632C406.777 281.128 408.524 285.497 410.637 289.693C414.632 297.566 419.334 305.06 424.686 312.083C424.017 313.071 423.169 313.925 422.186 314.601ZM462.842 342.924C465.99 343.904 469.266 344.413 472.563 344.436C478.097 344.399 483.527 342.934 488.329 340.181C506.837 329.957 505.289 304.209 504.561 291.839C504.539 291.467 504.37 291.12 504.092 290.874C503.814 290.627 503.449 290.501 503.078 290.523C502.707 290.546 502.36 290.714 502.113 290.992C501.866 291.271 501.74 291.635 501.762 292.007C502.471 303.798 503.927 328.371 486.985 337.737C472.507 345.742 457.133 341.469 438.922 324.098C434.834 320.099 431.054 315.795 427.616 311.224L427.522 311.094C422.047 303.983 417.249 296.374 413.193 288.368C408.641 279.17 406.327 271.222 406.327 264.747C406.29 254.708 409.739 244.968 416.085 237.189C417.223 242.488 421.365 253.217 436.609 258.497C456.517 265.419 476.593 259.019 486.575 253.515C488.645 259.859 492.579 265.431 497.863 269.505C499.418 270.694 501.316 271.348 503.274 271.371C503.572 271.856 503.871 272.304 504.169 272.714C504.669 273.387 505.232 274.012 505.849 274.58C506.423 275.096 507.048 275.552 507.714 275.942C504.412 293.984 509.897 325.647 514.469 328.539C515.619 329.241 516.946 329.597 518.293 329.565C518.743 329.562 519.191 329.531 519.637 329.472C520.439 342.271 516.689 363.728 485.81 373.896C479.037 376.135 473.029 375.426 467.917 371.788C460.995 366.862 456.368 356.712 455.957 345.667C458.383 344.827 460.771 343.894 462.842 342.924ZM199.764 592.643C200.568 592.295 201.327 591.851 202.022 591.318C210.698 584.433 216.501 579.06 225.288 570.943C231.651 565.048 239.58 557.715 251.223 547.397C280.143 521.817 291.562 516.406 296.431 514.111L297.196 513.757C302.187 510.982 306.521 507.163 309.902 502.562C311.358 500.696 313.13 498.215 315.798 494.352C319.399 489.147 324.325 482.02 332.031 471.664C345.651 453.286 355.036 440.487 361.287 430.281C363.6 426.549 365.783 422.389 368.078 418.023C372.69 409.009 377.817 400.269 383.434 391.845C391.791 379.037 402.918 368.268 415.992 360.332C422.298 356.321 432.971 353 443.27 349.809C446.647 348.764 449.931 347.738 453.009 346.712C453.335 353.035 455.068 359.206 458.084 364.773L453.774 371.322C445.677 383.729 438.698 394.458 433.082 404.906C431.347 408.097 430.209 410.503 429.22 412.481C428.605 413.75 428.045 414.888 427.354 416.045C427.379 411.597 426.834 407.163 425.731 402.854C425.632 402.495 425.395 402.19 425.071 402.006C424.747 401.823 424.364 401.775 424.005 401.874C423.647 401.973 423.342 402.211 423.158 402.534C422.974 402.858 422.927 403.241 423.026 403.6C424.566 409.512 424.896 415.674 423.996 421.717C421.944 424.851 419.014 428.9 414.182 435.151C406.569 445.021 398.173 455.674 390.076 466.086C383.079 475.023 376.53 483.382 371.418 489.987C368.544 493.718 366.082 496.927 363.955 499.745C360.121 505.078 355.991 510.192 351.584 515.063C348.298 518.889 345.25 522.914 342.461 527.116C339.139 532.032 335.571 536.778 331.77 541.333C325.911 547.808 310.537 556.484 276.896 574.712L268.388 579.302C253.593 587.288 243.032 592.979 235.849 598.203L235.662 598.333C229.822 602.606 226.333 606.562 224.467 611.151V611.002C224.405 610.821 224.306 610.656 224.176 610.515C224.047 610.374 223.89 610.261 223.715 610.183C223.541 610.105 223.352 610.064 223.161 610.062C222.969 610.06 222.78 610.097 222.603 610.171C222.427 610.245 222.268 610.354 222.135 610.492C222.003 610.631 221.9 610.794 221.834 610.974C221.767 611.153 221.738 611.344 221.748 611.535C221.758 611.726 221.807 611.913 221.893 612.084C222.415 613.372 223.18 615.07 224.02 616.991C226.628 622.518 228.909 628.194 230.849 633.989C231.538 638.149 231.769 642.372 231.539 646.583C231.539 651.695 231.427 656.528 232.341 659.289C233.062 661.353 233.935 663.362 234.953 665.297C235.782 666.619 236.346 668.089 236.614 669.626C236.614 669.906 236.054 670.017 235.793 670.036C234.351 669.984 232.945 669.566 231.708 668.822C230.471 668.078 229.444 667.032 228.722 665.782C225.927 661.267 223.985 656.277 222.994 651.061C222.772 649.977 222.473 648.911 222.098 647.87C221.277 645.576 219.56 641.657 217.247 641.303L215.568 641.004C213.515 640.65 212.284 640.426 211.202 641.21C210.12 641.993 201.5 653.057 201.014 655.446C200.884 656.117 200.716 657.927 200.492 660.8L200.361 662.48C200.063 666.211 199.652 671.137 199.391 672.144C198.475 675.071 196.472 677.536 193.794 679.029C193.182 679.399 192.477 679.584 191.762 679.564C191.048 679.545 190.354 679.32 189.764 678.917C190.271 676.812 191.177 674.824 192.432 673.059C193.029 672.126 193.327 670.073 193.029 662.368V661.864V660.8C193.029 660.259 193.029 659.718 193.029 659.196V658.599C193.029 656.826 192.88 654.867 193.029 654.438C193.565 652.96 194.286 651.556 195.174 650.259C197.511 646.685 199.262 642.761 200.361 638.635C200.408 638.458 200.419 638.274 200.395 638.094C200.37 637.913 200.31 637.739 200.219 637.581C200.127 637.423 200.005 637.285 199.86 637.175C199.714 637.064 199.549 636.983 199.373 636.937C199.196 636.89 199.012 636.879 198.831 636.903C198.651 636.928 198.476 636.988 198.319 637.08C198.161 637.171 198.023 637.293 197.913 637.439C197.802 637.584 197.721 637.749 197.675 637.926C196.63 641.787 194.98 645.458 192.786 648.803C191.756 650.296 190.934 651.921 190.342 653.636C190.141 655.315 190.141 657.013 190.342 658.692V659.196C190.062 660.371 189.82 661.416 189.633 662.312L189.428 663.207C189.091 665.466 188.398 667.658 187.375 669.7L186.872 670.652C185.771 672.742 182.412 679.085 181.274 679.776C179.408 680.41 174.352 681.1 173.083 680.018C173.004 679.96 172.95 679.873 172.934 679.776C172.71 678.843 174.184 676.436 176.013 674.719C177.151 673.637 179.073 669.215 181.61 661.659C182.767 658.319 183.774 655.222 183.942 654.569C184.772 649.758 185.128 644.877 185.006 639.997C184.987 639.629 184.827 639.282 184.56 639.029C184.292 638.775 183.938 638.634 183.569 638.635C183.385 638.64 183.204 638.681 183.036 638.755C182.868 638.83 182.717 638.937 182.59 639.071C182.464 639.204 182.365 639.361 182.299 639.533C182.234 639.705 182.202 639.888 182.207 640.071C182.327 644.687 182.008 649.304 181.256 653.86C181.125 654.382 180.192 657.293 178.979 660.763C176.069 669.29 174.501 672.312 174.054 672.76C173.606 673.208 170.322 676.287 170.079 679.253C168.902 679.748 167.611 679.91 166.348 679.72C166.277 679.7 166.212 679.665 166.157 679.616C166.102 679.568 166.059 679.507 166.031 679.44C165.098 677.219 168.083 672.107 169.538 669.644C170.061 668.73 170.49 668.021 170.714 667.517C171.199 666.416 172.244 663.039 174.091 656.565L174.408 655.483C174.949 653.617 175.416 651.994 175.658 651.229C176.003 650.116 176.24 648.973 176.367 647.814C176.367 647.087 176.535 646.322 176.61 645.501L176.796 643.635C176.796 642.87 176.964 642.049 177.095 641.191C177.122 640.838 177.015 640.488 176.794 640.211C176.573 639.934 176.256 639.751 175.905 639.699C175.555 639.647 175.198 639.73 174.907 639.93C174.615 640.131 174.41 640.435 174.333 640.78C174.203 641.695 174.11 642.646 174.035 643.355L173.848 645.221C173.848 645.911 173.718 646.546 173.643 647.087C173.102 647.87 171.777 649.755 170.247 652.087C168.717 654.419 165.9 658.505 163.773 662.069C161.907 665.297 159.65 667.107 158.53 667.163C158.466 667.179 158.397 667.173 158.337 667.146C158.276 667.119 158.226 667.072 158.194 667.014C156.608 664.887 160.209 654.961 162.523 651.565L163.101 650.706C166.212 646.326 168.976 641.71 171.367 636.9C173.009 633.448 179.782 623.335 185.211 615.2C190.267 607.644 193.141 603.315 193.589 602.14C196.257 594.247 197.899 593.464 199.764 592.643ZM219.915 649.997C217.116 654.326 211.071 658.282 203.403 660.483C203.664 657.125 203.794 656.192 203.832 655.987C204.317 654.326 211.967 644.344 212.881 643.467C213.641 643.477 214.398 643.571 215.138 643.747L216.818 644.027C218.137 645.336 219.073 646.981 219.523 648.785C219.579 649.176 219.71 649.587 219.822 649.997H219.915ZM149.015 680.578C148.876 680.451 148.765 680.298 148.687 680.127C148.609 679.956 148.566 679.771 148.561 679.583C148.556 679.396 148.589 679.209 148.658 679.034C148.727 678.859 148.83 678.7 148.961 678.566C149.093 678.432 149.25 678.326 149.423 678.254C149.597 678.182 149.783 678.146 149.971 678.147C150.159 678.148 150.344 678.188 150.516 678.262C150.689 678.337 150.844 678.445 150.974 678.581C155.75 683.246 166.702 687.463 183.121 685.317C183.304 685.294 183.489 685.307 183.667 685.355C183.844 685.403 184.011 685.486 184.156 685.599C184.302 685.711 184.424 685.852 184.515 686.011C184.606 686.171 184.665 686.347 184.689 686.53C184.712 686.712 184.699 686.898 184.651 687.075C184.602 687.253 184.52 687.419 184.407 687.565C184.294 687.71 184.154 687.832 183.994 687.923C183.835 688.015 183.658 688.074 183.476 688.097C180.556 688.483 177.614 688.676 174.669 688.675C161.945 688.675 153.213 684.776 148.903 680.578H149.015ZM174.166 692.482C174.181 692.852 174.051 693.213 173.803 693.488C173.556 693.764 173.21 693.932 172.841 693.956H170.975C164.475 693.878 158.084 692.273 152.317 689.273C151.993 689.101 151.748 688.811 151.634 688.464C151.519 688.116 151.543 687.737 151.701 687.407C151.872 687.083 152.163 686.839 152.512 686.727C152.861 686.616 153.24 686.645 153.567 686.81C159.483 689.893 166.1 691.378 172.766 691.12C173.11 691.151 173.43 691.307 173.667 691.558C173.904 691.808 174.041 692.137 174.054 692.482H174.166ZM94.6452 664.495H94.4586C94.1977 664.588 93.9705 664.757 93.8056 664.98C93.5904 665.252 93.4433 665.572 93.3765 665.913C93.2645 666.323 93.0966 666.976 90.7457 667.312C89.2344 667.536 88.6747 667.312 88.5254 667.125C88.3762 666.939 88.2269 666.566 88.1896 666.099C89.232 665.379 90.3373 664.755 91.492 664.233L92.6488 663.636C93.3578 663.338 100.112 661.491 116.643 657.237C130.469 653.673 144.91 650.016 145.582 649.773C145.978 649.757 146.373 649.833 146.736 649.995C147.098 650.157 147.418 650.4 147.671 650.706C148.312 651.262 148.714 652.044 148.791 652.889C148.697 653.263 147.597 653.804 146.272 654.121C145.482 654.337 144.665 654.438 143.846 654.419C143.641 654.419 143.455 654.14 143.1 653.542C142.746 652.945 141.813 651.341 140.077 651.826C138.044 652.367 126.103 655.557 114.982 658.636C99.9441 662.797 95.8207 663.991 94.5333 664.439L94.6452 664.495ZM96.2125 671.435C94.657 672.459 92.8086 672.944 90.9509 672.816C88.9764 673.056 86.9828 672.558 85.3535 671.417C84.9244 671.025 84.9431 670.279 85.0364 669.271C85.0364 668.954 85.0364 668.674 85.0364 668.413C85.0364 668.152 85.1856 668.096 85.4842 667.89C85.6957 668.496 86.078 669.027 86.585 669.42C87.4342 670.034 88.4684 670.337 89.5143 670.279C89.9952 670.276 90.4753 670.238 90.9509 670.167C93.6563 669.775 94.8505 668.861 95.4289 667.76C95.56 667.843 95.6792 667.943 95.7834 668.058C96.0465 669.145 96.1533 670.263 96.1006 671.38L96.2125 671.435ZM148.044 656.64L148.623 659.774C148.655 659.956 148.651 660.141 148.611 660.321C148.571 660.501 148.496 660.671 148.391 660.822C148.285 660.973 148.151 661.101 147.995 661.2C147.84 661.299 147.666 661.366 147.485 661.397H147.242C146.914 661.394 146.596 661.277 146.345 661.066C146.093 660.855 145.922 660.564 145.861 660.241L145.302 657.237C146.197 657.104 147.078 656.885 147.932 656.584L148.044 656.64ZM188.57 588.911C189.764 589.266 192.581 590.087 196.648 591.206C194.783 592.531 193.085 594.938 190.771 600.908C190.491 601.599 188.084 605.293 185.342 609.398C150.47 616.861 123.546 635.09 116.699 654.289L115.803 654.513C92.4249 660.521 91.548 660.987 91.2495 661.136L90.1113 661.733C88.4115 662.388 86.8719 663.4 85.5961 664.7C84.724 664.894 83.9361 665.36 83.3459 666.03C82.7557 666.701 82.3938 667.542 82.3123 668.432C82.3123 668.618 82.3123 668.842 82.3123 669.085C82.1557 669.867 82.1856 670.674 82.3995 671.443C82.6135 672.211 83.0055 672.918 83.5437 673.506C85.51 675.017 87.9529 675.772 90.4285 675.634H91.0442C92.3316 675.634 98.7687 675.167 98.9926 671.715C99.0852 670.184 98.934 668.647 98.5448 667.163C98.4478 666.871 98.2886 666.604 98.0783 666.379C100.634 665.651 105.542 664.271 115.113 661.64C114.901 663.914 115.008 666.206 115.43 668.45C120.057 692.836 160.471 705.673 205.698 697.109C250.925 688.545 283.856 661.808 279.229 637.403C276.113 620.966 256.727 609.771 230.587 606.841C232.513 604.659 234.679 602.7 237.043 601.002C259.227 605.629 291.356 611.077 321.004 611.338C316.209 619.958 294.006 656.621 229.132 726.626C157.261 716.606 91.0629 694.459 55.5194 668.562C69.6062 660.297 160.265 607.737 188.57 588.911ZM242.678 620.966C242.707 620.785 242.772 620.612 242.869 620.456C242.966 620.301 243.092 620.167 243.242 620.061C243.391 619.955 243.56 619.88 243.739 619.84C243.917 619.799 244.102 619.795 244.282 619.827C255.048 621.693 264.358 629.156 265.049 636.62C265.085 636.988 264.974 637.356 264.74 637.643C264.505 637.93 264.167 638.112 263.799 638.15H263.649C263.302 638.151 262.966 638.021 262.71 637.786C262.455 637.55 262.297 637.227 262.269 636.881C261.746 631.489 254.208 624.473 243.816 622.626C243.629 622.597 243.451 622.531 243.291 622.43C243.131 622.33 242.994 622.198 242.887 622.042C242.781 621.887 242.707 621.711 242.671 621.526C242.635 621.34 242.637 621.15 242.678 620.966ZM747.152 727.148C673.976 743.94 508.703 772.207 346.771 772.207H344.364C219.579 772.002 128.957 750.471 59.1951 704.46C56.3592 693.581 54.7138 682.427 54.288 671.193C90.7644 697.482 155.358 719.088 228.18 729.275L228.404 732.167C228.435 732.489 228.573 732.791 228.796 733.025C229.02 733.258 229.316 733.41 229.636 733.455C277.76 739.128 326.17 742.031 374.627 742.149C431.776 742.149 479.522 737.802 524.283 732.988C524.639 732.946 524.966 732.771 525.198 732.497C525.43 732.224 525.549 731.872 525.533 731.514L525.421 729.462C543.165 727.353 708.064 707.408 752.003 687.612C751.126 699.31 748.309 720.226 747.208 727.148H747.152Z" fill="black"/>
<path d="M241.465 791.574C239.021 790.585 231.744 789.018 221.669 786.854C199.951 782.171 167.15 775.118 148.194 766.628C148.025 766.549 147.843 766.504 147.657 766.496C147.471 766.489 147.285 766.518 147.11 766.583C146.936 766.648 146.776 766.747 146.64 766.874C146.504 767.002 146.395 767.155 146.32 767.325C146.244 767.495 146.203 767.679 146.199 767.865C146.195 768.051 146.228 768.237 146.297 768.41C146.365 768.583 146.468 768.741 146.598 768.874C146.728 769.007 146.884 769.112 147.056 769.185C166.273 777.786 199.298 784.895 221.091 789.596C230.644 791.649 238.2 793.328 240.439 794.168C240.611 794.246 240.797 794.288 240.986 794.293C241.175 794.297 241.362 794.263 241.538 794.193C241.713 794.123 241.873 794.018 242.006 793.884C242.14 793.751 242.246 793.592 242.316 793.417C242.387 793.242 242.421 793.054 242.417 792.865C242.413 792.676 242.371 792.49 242.293 792.318C242.216 792.146 242.104 791.991 241.965 791.863C241.826 791.735 241.662 791.637 241.484 791.574H241.465Z" fill="black"/>
<path d="M183.121 791.5L182.151 791.313C177.99 790.511 165.359 788.048 156.03 782.6C155.71 782.409 155.329 782.353 154.968 782.444C154.608 782.535 154.298 782.766 154.108 783.085C153.917 783.404 153.861 783.786 153.952 784.146C154.043 784.507 154.274 784.816 154.593 785.007C164.22 790.716 177.262 793.235 181.554 794.056L182.487 794.242H182.766C183.106 794.233 183.431 794.1 183.68 793.869C183.929 793.637 184.086 793.323 184.12 792.985C184.154 792.646 184.064 792.307 183.866 792.031C183.669 791.754 183.377 791.559 183.046 791.481L183.121 791.5Z" fill="black"/>
<path d="M135.171 513.571C141.253 517.862 150.097 520.026 161.292 520.026C169.452 519.931 177.58 518.993 185.547 517.228C204.205 513.291 223.666 504.708 244.32 495.603C263.37 487.207 283.073 478.531 302.701 473.419C302.885 473.378 303.058 473.3 303.211 473.191C303.364 473.081 303.493 472.942 303.591 472.781C303.689 472.621 303.754 472.442 303.781 472.256C303.808 472.07 303.798 471.88 303.75 471.698C303.703 471.516 303.619 471.346 303.504 471.197C303.389 471.048 303.245 470.924 303.08 470.832C302.916 470.74 302.735 470.682 302.548 470.662C302.361 470.641 302.172 470.659 301.992 470.713C282.14 475.881 262.325 484.613 243.182 493.103C222.658 502.133 203.31 510.679 184.969 514.559C163.344 519.131 146.254 517.993 136.85 511.35C134.899 510.071 133.245 508.388 132 506.415C130.754 504.442 129.946 502.225 129.629 499.913C129.605 499.73 129.545 499.555 129.452 499.395C129.36 499.236 129.237 499.096 129.09 498.985C128.944 498.873 128.777 498.791 128.599 498.744C128.421 498.697 128.235 498.685 128.053 498.71C127.87 498.734 127.694 498.794 127.535 498.887C127.376 498.979 127.236 499.102 127.125 499.249C127.013 499.395 126.931 499.562 126.884 499.74C126.837 499.918 126.825 500.104 126.849 500.286C127.228 502.96 128.165 505.524 129.599 507.813C131.032 510.101 132.931 512.063 135.171 513.571Z" fill="black"/>
<path d="M365.522 533.516C365.537 533.332 365.516 533.148 365.459 532.972C365.402 532.797 365.311 532.634 365.192 532.494C364.95 532.21 364.606 532.035 364.235 532.005C363.864 531.975 363.496 532.094 363.213 532.336C362.929 532.577 362.753 532.921 362.724 533.292C361.642 546.651 349.663 556.298 338.953 560.869C338.657 560.995 338.414 561.219 338.264 561.504C338.114 561.789 338.067 562.117 338.13 562.432C338.194 562.748 338.364 563.032 338.613 563.237C338.861 563.441 339.173 563.554 339.495 563.556C339.681 563.555 339.865 563.517 340.036 563.444C351.604 558.555 364.347 548.125 365.522 533.516Z" fill="black"/>
<path d="M367.798 546.446C367.444 546.335 367.06 546.369 366.732 546.54C366.403 546.712 366.155 547.006 366.044 547.36C364.178 553.387 359.551 558.35 351.957 562.548C351.78 562.627 351.622 562.741 351.492 562.884C351.361 563.028 351.262 563.196 351.201 563.38C351.139 563.563 351.116 563.757 351.133 563.95C351.15 564.143 351.207 564.33 351.301 564.5C351.394 564.669 351.521 564.818 351.675 564.936C351.828 565.054 352.005 565.138 352.193 565.185C352.381 565.231 352.576 565.238 352.767 565.204C352.957 565.171 353.139 565.099 353.301 564.992C361.566 560.439 366.604 554.935 368.712 548.2C368.823 547.846 368.789 547.462 368.618 547.134C368.446 546.805 368.151 546.557 367.798 546.446Z" fill="black"/>
<path d="M56.378 612.365C56.4562 612.001 56.3886 611.621 56.1897 611.307C55.9908 610.993 55.6765 610.77 55.3145 610.685C54.195 610.424 52.7957 611.17 48.7469 613.54C45.9669 615.163 41.8994 617.551 39.9403 617.813C40.3326 615.449 40.9576 613.131 41.8061 610.891C43.6719 605.293 45.5377 599.565 43.4107 596.86C40.9852 593.651 35.593 596.356 29.9023 599.229C26.3387 601.095 22.3085 603.054 20.1629 602.868C20.0676 602.875 19.9719 602.857 19.8864 602.814C19.8008 602.771 19.7287 602.706 19.6777 602.625C18.5769 600.983 20.536 594.621 21.8421 590.404C22.8213 587.768 23.4486 585.014 23.7079 582.213C23.7218 581.693 23.6124 581.176 23.3886 580.706C23.1649 580.236 22.8331 579.825 22.4205 579.508C20.0882 577.754 15.3491 578.967 8.16576 580.795C6.00144 581.355 3.66921 581.952 1.24367 582.493C1.0546 582.523 0.873685 582.592 0.712135 582.694C0.550586 582.797 0.41184 582.932 0.304447 583.09C0.197054 583.249 0.123317 583.427 0.0877919 583.615C0.0522671 583.804 0.0556961 583.997 0.0978987 584.184C0.140101 584.37 0.220175 584.547 0.333145 584.701C0.446114 584.856 0.589593 584.985 0.754698 585.082C0.919803 585.179 1.10302 585.241 1.29303 585.264C1.48304 585.287 1.67578 585.271 1.85936 585.217C4.32221 584.657 6.67312 584.06 8.8561 583.501C13.8378 582.232 19.4725 580.795 20.7413 581.747C20.7413 581.747 20.9092 581.877 20.9278 582.288C20.5615 584.778 19.9362 587.223 19.062 589.583C16.9164 596.524 15.517 601.636 17.1962 604.192C17.4849 604.618 17.8669 604.972 18.3131 605.227C18.7593 605.483 19.258 605.633 19.771 605.666C22.7377 605.928 26.7491 603.801 30.9658 601.729C34.5482 599.864 39.9776 597.196 41.0038 598.558C42.03 599.92 40.2388 606.021 38.9514 610.032C37.2536 615.275 36.414 618.093 37.4775 619.678C37.6706 619.955 37.9236 620.184 38.2176 620.348C38.5116 620.513 38.839 620.609 39.1753 620.63H39.4552C41.8434 620.63 45.3512 618.764 50.0156 615.966C51.5196 615.002 53.0981 614.159 54.7361 613.447C55.0961 613.509 55.4662 613.432 55.7712 613.231C56.0762 613.03 56.2932 612.72 56.378 612.365Z" fill="black"/>
<path d="M349.812 710.897C349.942 710.915 350.074 710.915 350.204 710.897C350.507 710.897 350.801 710.799 351.044 710.617C351.286 710.435 351.463 710.18 351.547 709.889L359.757 682.145C362.332 681.865 365.018 678.824 366.38 674.364C367.742 669.905 367.239 665.633 365.112 664.047L373.62 635.276C373.726 634.92 373.687 634.536 373.51 634.209C373.333 633.881 373.034 633.638 372.677 633.531C372.321 633.425 371.937 633.465 371.61 633.641C371.283 633.818 371.039 634.117 370.933 634.474L362.35 663.468C359.906 663.972 357.406 666.92 356.1 671.193C355.398 673.3 355.169 675.536 355.428 677.742C355.56 679.068 356.146 680.307 357.089 681.249L348.861 709.087C348.797 709.268 348.772 709.46 348.787 709.651C348.801 709.843 348.854 710.029 348.943 710.198C349.033 710.368 349.156 710.518 349.305 710.638C349.455 710.758 349.627 710.846 349.812 710.897Z" fill="black"/>
<path d="M276.953 710.897C286.693 711.699 296.003 712.11 305.202 712.11C308.019 712.11 310.799 712.11 313.635 711.998C313.889 711.99 314.137 711.913 314.35 711.775C314.564 711.636 314.736 711.443 314.848 711.214C318.219 704.361 321.328 697.992 324.177 692.108C324.291 691.9 324.351 691.665 324.351 691.427C324.351 691.189 324.291 690.955 324.177 690.746C324.054 690.541 323.879 690.372 323.669 690.257C323.459 690.143 323.222 690.086 322.983 690.093C315.781 690.205 302.067 690.28 291.134 689.347C290.893 689.331 290.653 689.376 290.435 689.477C290.216 689.578 290.027 689.732 289.883 689.925C282.849 699.665 277.513 706.718 276.058 708.583C275.902 708.781 275.803 709.017 275.77 709.267C275.737 709.516 275.772 709.77 275.871 710.001C275.96 710.231 276.106 710.434 276.295 710.591C276.485 710.747 276.712 710.853 276.953 710.897ZM291.6 692.239C301.433 693.023 313.243 693.041 320.669 692.967C318.181 698.054 315.532 703.484 312.721 709.255C301.717 709.511 290.707 709.206 279.734 708.341C282.066 705.3 286.338 699.516 291.6 692.239Z" fill="black"/>
<path d="M295.742 685.298C303.205 685.877 311.769 686.026 318.56 686.026C321.527 686.026 324.158 686.026 326.229 686.026C326.491 686.021 326.747 685.943 326.967 685.802C327.188 685.66 327.365 685.46 327.479 685.224C329.998 679.906 332.255 675.037 334.289 670.577C334.389 670.364 334.434 670.129 334.417 669.893C334.401 669.658 334.325 669.431 334.196 669.234C334.075 669.028 333.9 668.859 333.689 668.747C333.478 668.635 333.24 668.584 333.002 668.599C327.236 668.693 316.079 668.767 306.041 668.133C305.796 668.112 305.55 668.158 305.33 668.266C305.109 668.375 304.923 668.542 304.791 668.749C301.656 673.32 298.261 678.171 294.715 683.134C294.572 683.339 294.485 683.577 294.462 683.826C294.439 684.074 294.482 684.325 294.585 684.552C294.697 684.766 294.862 684.947 295.065 685.077C295.268 685.208 295.501 685.284 295.742 685.298Z" fill="black"/>
<path d="M309.847 665.036C317.459 665.652 326.34 665.801 333.15 665.801H335.613C335.882 665.805 336.146 665.729 336.372 665.583C336.598 665.436 336.775 665.227 336.882 664.98C338.953 660.427 340.744 656.379 342.255 652.89C342.349 652.676 342.387 652.443 342.367 652.211C342.348 651.979 342.27 651.756 342.142 651.561C342.015 651.367 341.84 651.207 341.635 651.097C341.43 650.987 341.201 650.93 340.968 650.93C331.639 650.93 324.176 650.837 317.795 650.445C317.545 650.434 317.296 650.489 317.074 650.603C316.851 650.718 316.662 650.888 316.526 651.098C314.119 654.83 311.526 658.823 308.802 662.853C308.665 663.054 308.583 663.286 308.563 663.528C308.543 663.771 308.587 664.014 308.69 664.234C308.796 664.456 308.959 664.648 309.162 664.788C309.364 664.929 309.601 665.015 309.847 665.036ZM318.448 653.281C324.176 653.617 330.874 653.729 338.822 653.748C337.579 656.522 336.21 659.631 334.718 663.077C328.467 663.077 320.015 663.077 312.459 662.498C314.474 659.308 316.489 656.248 318.373 653.281H318.448Z" fill="black"/>
<path d="M321.228 647.311C327.721 647.666 334.419 647.74 339.307 647.74H343.431C343.703 647.738 343.969 647.656 344.195 647.503C344.421 647.35 344.596 647.134 344.7 646.882C348.021 639.064 349.476 635.146 349.476 635.109C349.558 634.901 349.588 634.677 349.562 634.455C349.536 634.234 349.455 634.022 349.327 633.84C349.202 633.656 349.036 633.504 348.841 633.397C348.647 633.29 348.429 633.231 348.207 633.224L328.057 632.683C327.798 632.685 327.545 632.756 327.322 632.887C327.1 633.018 326.915 633.205 326.788 633.43C324.922 636.881 322.72 640.893 320.071 645.203C319.948 645.412 319.883 645.65 319.883 645.893C319.883 646.136 319.948 646.374 320.071 646.583C320.188 646.791 320.355 646.967 320.557 647.094C320.759 647.221 320.99 647.295 321.228 647.311ZM328.896 635.482L346.192 635.948C345.502 637.684 344.326 640.687 342.461 644.923C338.151 644.923 330.911 644.923 323.653 644.624C325.687 641.303 327.422 638.243 328.896 635.482Z" fill="black"/>
<path d="M388.21 713.249C388.483 713.276 388.758 713.276 389.031 713.249C389.811 713.186 390.567 712.951 391.244 712.561C391.922 712.17 392.504 711.634 392.95 710.991C394.305 709.235 395.26 707.203 395.748 705.039C396.646 702.11 396.426 698.953 395.133 696.177C394.774 695.538 394.235 695.019 393.584 694.684L405.544 633.84C405.589 633.657 405.597 633.465 405.566 633.279C405.535 633.092 405.467 632.913 405.365 632.753C405.264 632.594 405.131 632.456 404.974 632.35C404.818 632.243 404.642 632.169 404.456 632.132C404.27 632.096 404.079 632.097 403.894 632.136C403.709 632.176 403.533 632.252 403.379 632.361C403.224 632.471 403.093 632.61 402.994 632.771C402.894 632.932 402.829 633.112 402.801 633.299L390.767 694.497C388.416 695.281 386.251 698.36 385.169 702.483C383.994 707.931 385.262 712.521 388.21 713.249ZM387.987 703.248C388.938 699.349 390.953 697.184 392.129 697.184C392.392 697.287 392.606 697.488 392.726 697.744C393.246 698.784 393.491 699.941 393.435 701.102C393.424 702.235 393.28 703.362 393.006 704.461C392.615 706.219 391.851 707.874 390.767 709.312C390.058 710.17 389.311 710.637 388.901 710.525C387.912 710.282 387.054 707.166 388.024 703.248H387.987Z" fill="black"/>
<path d="M429.706 662.387L427.392 709.479C427.382 709.663 427.408 709.847 427.47 710.021C427.531 710.194 427.626 710.354 427.749 710.491C427.872 710.628 428.021 710.739 428.187 710.819C428.353 710.898 428.533 710.944 428.717 710.953C429.075 710.954 429.421 710.817 429.681 710.57C429.941 710.324 430.097 709.987 430.116 709.629L432.43 662.088C434.594 660.931 436.273 657.61 436.647 653.356C437.038 648.654 435.676 644.773 433.344 643.617L433.904 632.086C433.914 631.902 433.888 631.718 433.826 631.544C433.765 631.371 433.67 631.211 433.547 631.074C433.424 630.937 433.275 630.826 433.109 630.747C432.943 630.667 432.763 630.622 432.579 630.612C432.21 630.601 431.852 630.733 431.577 630.98C431.303 631.226 431.134 631.569 431.105 631.937L430.545 643.505C428.176 644.4 426.31 647.908 425.918 652.423C425.676 654.635 425.931 656.872 426.664 658.972C426.881 659.734 427.267 660.437 427.793 661.028C428.32 661.62 428.974 662.084 429.706 662.387Z" fill="black"/>
<path d="M459.503 667.985L460.827 708.603C460.837 708.968 460.989 709.314 461.25 709.568C461.512 709.823 461.862 709.965 462.227 709.965C462.411 709.96 462.592 709.919 462.76 709.844C462.927 709.769 463.079 709.662 463.205 709.529C463.332 709.395 463.431 709.238 463.497 709.067C463.562 708.895 463.594 708.712 463.589 708.528L462.264 667.761C464.503 666.604 465.996 663.003 465.996 658.432C465.996 653.543 464.13 649.737 461.63 648.935L461.033 630.277C461.023 629.912 460.871 629.566 460.61 629.311C460.348 629.057 459.998 628.915 459.633 628.915C459.45 628.92 459.269 628.96 459.101 629.035C458.933 629.11 458.781 629.217 458.655 629.351C458.528 629.484 458.429 629.641 458.363 629.813C458.298 629.985 458.266 630.168 458.271 630.351L458.887 649.289C456.741 650.539 455.267 654.066 455.267 658.45C455.379 663.227 457.021 666.996 459.503 667.985Z" fill="black"/>
<path d="M483.049 676.063C483.628 680.802 485.792 684.31 488.404 684.944L491.091 706.774C491.132 707.112 491.295 707.423 491.549 707.65C491.803 707.877 492.131 708.003 492.472 708.005H492.696C492.878 707.982 493.054 707.923 493.214 707.832C493.374 707.741 493.514 707.619 493.627 707.473C493.74 707.328 493.823 707.161 493.871 706.984C493.919 706.806 493.932 706.62 493.908 706.438L491.184 684.384C493.237 682.948 494.319 679.179 493.778 674.775C493.237 670.372 491.278 666.883 488.908 666.006L484.038 626.544C483.994 626.176 483.805 625.84 483.512 625.611C483.22 625.381 482.849 625.278 482.48 625.322C482.112 625.367 481.776 625.556 481.547 625.848C481.317 626.14 481.214 626.512 481.258 626.88L486.109 666.174C483.777 667.405 482.508 671.324 483.049 676.063ZM487.434 668.599H487.658C488.703 668.599 490.513 671.137 490.979 675.13C491.445 679.123 490.307 681.996 489.3 682.239C488.292 682.369 486.408 679.832 485.904 675.727C485.4 671.622 486.576 668.711 487.434 668.599Z" fill="black"/>
<path d="M687.149 428.266C686.924 427.972 686.591 427.78 686.224 427.731C685.856 427.682 685.485 427.78 685.19 428.005C680.642 431.344 675.331 433.493 669.741 434.255C669.393 434.288 669.07 434.45 668.835 434.709C668.6 434.968 668.471 435.305 668.472 435.655C668.472 436.028 669.107 444.984 669.555 451.16C667.992 451.009 666.416 451.189 664.928 451.687C663.44 452.185 662.073 452.991 660.916 454.052C656.643 457.41 654.927 461.813 656.886 464.332C657.325 464.845 657.877 465.248 658.499 465.511C659.12 465.773 659.795 465.887 660.468 465.843C663.178 465.661 665.757 464.607 667.819 462.839C669.132 461.953 670.242 460.797 671.075 459.449C671.908 458.102 672.445 456.593 672.652 455.022C672.677 454.799 672.677 454.573 672.652 454.35V454.238C672.409 450.842 672.111 446.644 671.85 443.043C677.135 442.394 682.172 440.424 686.496 437.315C686.642 437.203 686.764 437.062 686.856 436.902C686.947 436.743 687.006 436.566 687.03 436.383C687.053 436.201 687.04 436.015 686.992 435.837C686.944 435.659 686.861 435.493 686.748 435.347C686.635 435.201 686.495 435.079 686.335 434.987C686.175 434.896 685.999 434.837 685.816 434.813C685.633 434.79 685.447 434.803 685.27 434.851C685.092 434.899 684.925 434.982 684.78 435.095C680.917 437.862 676.431 439.631 671.719 440.245C671.626 438.845 671.532 437.67 671.476 436.868C677.107 435.916 682.432 433.646 687.019 430.244C687.157 430.123 687.271 429.976 687.352 429.811C687.434 429.646 687.482 429.466 687.494 429.282C687.506 429.098 687.482 428.914 687.423 428.74C687.364 428.566 687.271 428.405 687.149 428.266Z" fill="black"/>
<path d="M110.636 465.955C107.665 467.32 105.235 469.638 103.732 472.542C102.394 474.765 101.589 477.269 101.381 479.856C101.193 480.916 101.315 482.008 101.732 483.001C102.149 483.994 102.844 484.845 103.732 485.453C104.386 485.824 105.126 486.017 105.878 486.013C107.218 485.943 108.512 485.497 109.61 484.725C111.738 483.285 113.501 481.369 114.759 479.128C116.209 476.775 117.031 474.09 117.147 471.329C117.232 469.811 116.739 468.318 115.767 467.149C115.716 467.066 115.653 466.991 115.58 466.926L115.394 466.758L95.0377 448.249C99.1333 447.859 103.069 446.461 106.494 444.182C111.96 441.103 115.916 438.864 122.204 445.413C122.466 445.604 122.786 445.698 123.11 445.679C123.434 445.66 123.741 445.529 123.979 445.309C124.217 445.089 124.371 444.792 124.415 444.471C124.458 444.15 124.389 443.823 124.219 443.547C116.438 435.431 110.692 438.677 105.132 441.812C101.083 444.088 96.9035 446.439 91.3061 445.17C91.0032 445.1 90.6854 445.132 90.4028 445.262C90.1202 445.392 89.889 445.612 89.7457 445.888C89.6023 446.164 89.555 446.48 89.6112 446.786C89.6674 447.092 89.8239 447.37 90.056 447.577L110.636 465.955Z" fill="black"/>
<path d="M522.548 180.022C523.055 180.015 523.561 179.965 524.06 179.873C526.207 179.388 528.213 178.41 529.918 177.018C532.382 175.314 534.098 172.729 534.713 169.797C534.713 169.797 535.777 158.752 536.579 150.692H537.904C542.975 150.678 548.012 149.866 552.83 148.285L553.035 159.479C552.06 159.253 551.045 159.253 550.069 159.479C547.913 159.957 545.899 160.935 544.192 162.334C539.938 165.693 538.202 170.096 540.161 172.615C540.603 173.124 541.156 173.525 541.777 173.787C542.398 174.049 543.071 174.165 543.744 174.126C546.456 173.95 549.036 172.896 551.095 171.122C554.379 168.547 556.133 165.357 555.909 162.875L555.442 138.974C555.427 138.833 555.389 138.694 555.33 138.564C555.337 138.483 555.337 138.402 555.33 138.321C555.257 138.217 555.169 138.122 555.069 138.041C555.004 137.958 554.929 137.883 554.845 137.818C554.643 137.711 554.421 137.647 554.192 137.631C554.044 137.645 553.899 137.682 553.763 137.743C553.689 137.737 553.614 137.737 553.539 137.743C551.01 139.06 548.319 140.038 545.535 140.654C542.528 141.339 539.457 141.702 536.374 141.736H536.075C535.952 141.718 535.826 141.718 535.702 141.736C535.446 141.811 535.217 141.959 535.041 142.16C534.866 142.362 534.752 142.61 534.713 142.874C534.713 142.874 534.713 142.874 534.713 143.004C534.713 143.135 534.452 145.617 534.06 149.087C533.501 154.33 532.81 161.252 532.4 165.562C531.303 165.175 530.12 165.104 528.985 165.357C526.831 165.849 524.82 166.832 523.108 168.23C518.835 171.57 517.119 175.992 519.078 178.492C519.502 178.994 520.035 179.392 520.637 179.657C521.238 179.922 521.892 180.047 522.548 180.022Z" fill="black"/>
<path d="M459.352 310.236C459.299 310.059 459.211 309.894 459.094 309.752C458.977 309.609 458.833 309.491 458.67 309.404C458.507 309.317 458.328 309.264 458.144 309.246C457.96 309.229 457.775 309.248 457.599 309.303C457.599 309.303 455.975 309.788 452.841 311.169C452.206 311.494 451.502 311.664 450.788 311.664C450.075 311.664 449.371 311.494 448.736 311.169C446.87 310.087 445.49 306.952 444.837 302.12C443.176 289.899 442.019 283.07 435.843 273.629C434.636 271.507 432.9 269.733 430.804 268.481C428.709 267.229 426.324 266.54 423.884 266.483C418.771 266.483 413.902 269.561 410.543 274.86C410.445 275.016 410.379 275.189 410.348 275.37C410.317 275.552 410.322 275.737 410.362 275.917C410.403 276.096 410.479 276.265 410.585 276.416C410.691 276.566 410.826 276.693 410.982 276.791C411.137 276.889 411.311 276.956 411.492 276.987C411.673 277.018 411.859 277.013 412.038 276.972C412.217 276.931 412.387 276.856 412.537 276.749C412.687 276.643 412.815 276.508 412.913 276.353C414.015 274.356 415.597 272.665 417.515 271.43C419.433 270.196 421.628 269.458 423.902 269.281C425.859 269.372 427.762 269.959 429.429 270.987C431.097 272.015 432.476 273.451 433.436 275.159C439.276 284.096 440.396 290.664 442 302.493C442.803 308.37 444.519 312.008 447.262 313.688C448.226 314.245 449.321 314.535 450.434 314.527C451.604 314.502 452.757 314.248 453.83 313.781C456.834 312.549 458.326 312.083 458.345 312.083C458.539 312.039 458.722 311.955 458.881 311.835C459.04 311.715 459.172 311.562 459.267 311.388C459.362 311.213 459.419 311.02 459.434 310.821C459.449 310.622 459.421 310.423 459.352 310.236Z" fill="black"/>
<path d="M436.87 287.716C436.686 287.725 436.506 287.771 436.34 287.85C436.174 287.929 436.025 288.041 435.902 288.178C435.779 288.315 435.684 288.474 435.623 288.648C435.562 288.822 435.535 289.006 435.545 289.19C435.647 290.056 435.544 290.934 435.246 291.753C434.948 292.573 434.463 293.311 433.829 293.91C432.646 294.76 431.295 295.348 429.866 295.634C428.437 295.921 426.964 295.899 425.545 295.571C425.194 295.55 424.849 295.662 424.577 295.885C424.306 296.107 424.128 296.423 424.078 296.771C424.029 297.119 424.112 297.472 424.311 297.761C424.51 298.05 424.811 298.254 425.153 298.332C426.086 298.467 427.027 298.536 427.97 298.537C430.779 298.678 433.54 297.766 435.713 295.981C436.648 295.103 437.371 294.023 437.827 292.823C438.283 291.624 438.46 290.337 438.344 289.059C438.325 288.686 438.159 288.336 437.883 288.084C437.607 287.833 437.243 287.7 436.87 287.716Z" fill="black"/>
<path d="M463.794 281.148C465.44 281.153 467.064 280.77 468.533 280.029C470.365 279.063 471.892 277.608 472.946 275.826C474 274.044 474.539 272.005 474.504 269.935C474.504 269.564 474.356 269.208 474.094 268.945C473.832 268.683 473.476 268.535 473.105 268.535C472.733 268.535 472.377 268.683 472.115 268.945C471.853 269.208 471.705 269.564 471.705 269.935C471.746 271.486 471.354 273.018 470.573 274.36C469.792 275.701 468.653 276.798 467.283 277.529C465.745 278.232 464.039 278.483 462.363 278.252C460.688 278.02 459.113 277.316 457.824 276.222C457.524 276.002 457.15 275.91 456.782 275.966C456.415 276.022 456.085 276.222 455.865 276.521C455.644 276.82 455.552 277.195 455.608 277.562C455.664 277.93 455.864 278.26 456.163 278.48C458.357 280.161 461.031 281.096 463.794 281.148Z" fill="black"/>
<path d="M478.963 300.645C478.649 300.639 478.342 300.739 478.091 300.929C477.841 301.118 477.662 301.386 477.582 301.69C476.977 304.469 475.813 307.097 474.161 309.412C472.509 311.728 470.404 313.684 467.973 315.161C466.314 316.175 464.471 316.851 462.55 317.152C460.629 317.453 458.668 317.373 456.778 316.915C456.508 316.868 456.229 316.901 455.977 317.011C455.725 317.121 455.511 317.303 455.362 317.534C455.212 317.765 455.134 318.034 455.138 318.309C455.141 318.584 455.225 318.852 455.379 319.079C455.752 319.564 463.271 329.155 471.835 329.155C473.545 329.16 475.232 328.763 476.761 327.998C484.896 323.986 480.81 303.966 480.325 301.69C480.243 301.391 480.066 301.127 479.82 300.938C479.574 300.749 479.273 300.647 478.963 300.645ZM475.511 325.554C469.746 328.39 463.439 323.483 460.062 320.143C463.345 320.146 466.568 319.263 469.391 317.587C473.385 315.241 476.553 311.714 478.459 307.493C479.392 314.9 479.243 323.707 475.511 325.554Z" fill="black"/>
<path d="M484.952 274.282C486.117 274.282 487.06 273.338 487.06 272.174C487.06 271.009 486.117 270.065 484.952 270.065C483.788 270.065 482.844 271.009 482.844 272.174C482.844 273.338 483.788 274.282 484.952 274.282Z" fill="black"/>
</svg>
